<svg width="176" height="68" viewBox="0 0 176 68" fill="none" xmlns="http://www.w3.org/2000/svg">
<path d="M2.33618 3.02441H21.9467C24.5705 3.02441 26.6938 5.14895 26.6938 7.77428V24.027C26.6938 26.6524 28.8172 28.7769 31.441 28.7769H80.8388C83.4627 28.7769 85.586 30.9015 85.586 33.5268V61.1155C85.586 63.7408 87.7093 65.8654 90.3332 65.8654H173.098" stroke="white" stroke-width="3" stroke-miterlimit="10"/>
<path d="M2.33614 5.10335C3.48369 5.10335 4.41396 4.17255 4.41396 3.02434C4.41396 1.87613 3.48369 0.945312 2.33614 0.945312C1.18858 0.945312 0.258301 1.87613 0.258301 3.02434C0.258301 4.17255 1.18858 5.10335 2.33614 5.10335Z" fill="white"/>
<path d="M173.082 67.9295C174.23 67.9295 175.16 66.9987 175.16 65.8505C175.16 64.7023 174.23 63.7715 173.082 63.7715C171.935 63.7715 171.005 64.7023 171.005 65.8505C171.005 66.9987 171.935 67.9295 173.082 67.9295Z" fill="white"/>
</svg>
